<?xml version="1.0" encoding="UTF-8" standalone="no"?>
<!DOCTYPE svg PUBLIC "-//W3C//DTD SVG 20010904//EN"
              "http://www.w3.org/TR/2001/REC-SVG-20010904/DTD/svg10.dtd">

<svg xmlns="http://www.w3.org/2000/svg"
     width="10.2083in" height="11.0278in"
     viewBox="0 0 735 794">
  <path id="Selection"
        fill="black" stroke="black" stroke-width="1"
        d="M 167.00,460.00
           C 167.73,454.57 180.67,443.87 184.97,439.66
             184.97,439.66 207.07,417.17 207.07,417.17
             207.07,417.17 234.66,390.11 234.66,390.11
             234.66,390.11 250.66,373.71 250.66,373.71
             252.29,371.78 255.10,368.94 254.40,366.17
             253.86,364.08 243.49,353.99 241.25,351.73
             241.25,351.73 214.07,324.93 214.07,324.93
             214.07,324.93 203.96,314.57 203.96,314.57
             203.96,314.57 189.00,299.45 189.00,299.45
             189.00,299.45 152.01,262.96 152.01,262.96
             152.01,262.96 142.70,253.08 142.70,253.08
             130.91,241.58 114.78,228.19 108.04,213.00
             106.44,209.38 100.70,192.54 100.10,189.00
             100.10,189.00 100.10,179.00 100.10,179.00
             100.02,167.09 103.85,150.59 109.86,140.30
             109.86,140.30 115.50,132.69 115.50,132.69
             117.87,129.33 118.12,128.25 121.30,125.00
             124.24,122.00 127.63,119.60 130.91,117.00
             134.44,114.20 135.84,112.28 140.00,110.05
             148.67,105.42 163.16,101.00 173.00,100.80
             173.00,100.80 188.00,100.80 188.00,100.80
             195.03,101.09 197.55,102.24 204.00,104.50
             224.45,111.64 228.44,118.28 243.18,132.58
             243.18,132.58 267.50,157.12 267.50,157.12
             267.50,157.12 289.12,177.74 289.12,177.74
             289.12,177.74 301.25,190.71 301.25,190.71
             301.25,190.71 329.91,219.07 329.91,219.07
             329.91,219.07 355.57,244.41 355.57,244.41
             358.01,246.82 363.74,254.03 366.61,254.74
             371.25,255.88 376.27,248.35 379.28,245.34
             379.28,245.34 399.18,225.13 399.18,225.13
             399.18,225.13 412.85,211.98 412.85,211.98
             412.85,211.98 446.28,178.09 446.28,178.09
             446.28,178.09 453.91,171.49 453.91,171.49
             453.91,171.49 484.68,140.08 484.68,140.08
             484.68,140.08 505.00,119.46 505.00,119.46
             515.06,111.11 535.79,100.18 549.00,100.00
             549.00,100.00 561.00,100.00 561.00,100.00
             577.36,100.20 600.66,111.30 611.91,122.99
             615.74,126.97 621.19,131.35 622.00,137.00
             626.49,140.55 629.98,150.48 631.55,156.00
             636.58,173.69 636.11,193.08 628.49,209.96
             628.49,209.96 623.77,218.04 623.77,218.04
             621.07,222.80 619.68,225.56 616.18,230.00
             616.18,230.00 579.09,267.08 579.09,267.08
             579.09,267.08 561.83,284.95 561.83,284.95
             561.83,284.95 546.92,299.32 546.92,299.32
             546.92,299.32 538.99,307.96 538.99,307.96
             538.99,307.96 532.09,314.17 532.09,314.17
             532.09,314.17 522.91,324.13 522.91,324.13
             522.91,324.13 492.28,353.92 492.28,353.92
             490.34,355.95 481.72,364.37 481.15,366.04
             479.88,369.80 484.59,373.63 487.00,375.96
             487.00,375.96 509.72,398.28 509.72,398.28
             509.72,398.28 523.46,413.07 523.46,413.07
             523.46,413.07 530.58,419.21 530.58,419.21
             530.58,419.21 539.50,429.12 539.50,429.12
             539.50,429.12 576.44,466.00 576.44,466.00
             582.16,471.85 599.99,487.87 603.00,494.00
             607.03,494.56 613.67,502.75 616.39,506.00
             623.54,514.57 629.98,525.99 632.47,537.00
             632.47,537.00 633.32,544.00 633.32,544.00
             634.62,551.80 635.10,550.16 635.00,559.00
             634.92,565.75 633.26,572.54 631.40,579.00
             628.67,588.47 623.34,600.34 616.55,607.54
             616.55,607.54 610.55,612.87 610.55,612.87
             594.96,628.42 576.97,635.25 555.00,635.00
             540.63,634.83 520.78,628.23 509.42,619.40
             509.42,619.40 478.71,589.13 478.71,589.13
             478.71,589.13 462.08,573.54 462.08,573.54
             462.08,573.54 445.18,555.51 445.18,555.51
             445.18,555.51 429.42,540.54 429.42,540.54
             429.42,540.54 415.61,526.00 415.61,526.00
             415.61,526.00 403.69,514.04 403.69,514.04
             403.69,514.04 396.42,507.71 396.42,507.71
             396.42,507.71 379.91,490.71 379.91,490.71
             377.10,488.04 370.31,480.06 366.28,481.08
             363.51,481.78 356.93,489.26 354.58,491.56
             354.58,491.56 328.83,517.84 328.83,517.84
             328.83,517.84 257.28,589.00 257.28,589.00
             257.28,589.00 228.97,616.96 228.97,616.96
             213.89,629.04 195.19,635.22 176.00,635.00
             170.43,634.93 170.07,634.42 165.00,633.46
             140.52,628.84 118.69,614.04 107.89,591.00
             105.25,585.38 100.69,569.07 100.37,563.00
             100.37,563.00 101.00,553.00 101.00,553.00
             101.00,553.00 101.00,547.00 101.00,547.00
             101.09,539.71 102.10,538.59 104.26,532.00
             111.22,510.77 122.82,502.12 137.58,486.99
             137.58,486.99 154.79,469.91 154.79,469.91
             158.53,466.01 161.67,461.57 167.00,460.00 Z" />
</svg>
