<?xml version="1.0" encoding="UTF-8" standalone="no"?>
<!DOCTYPE svg PUBLIC "-//W3C//DTD SVG 20010904//EN"
              "http://www.w3.org/TR/2001/REC-SVG-20010904/DTD/svg10.dtd">

<svg xmlns="http://www.w3.org/2000/svg"
     width="5.68889in" height="5.68889in"
     viewBox="0 0 512 512">
  <path id="Selection"
        fill="black" stroke="black" stroke-width="1"
        d="M 423.00,5.44
           C 438.26,3.48 453.52,6.48 466.00,15.76
             470.66,19.23 479.46,28.46 484.00,33.00
             497.22,46.22 506.76,57.20 507.00,77.00
             507.29,101.94 500.07,110.93 483.00,128.00
             483.00,128.00 468.00,143.00 468.00,143.00
             466.41,144.58 463.12,148.13 461.00,148.66
             457.26,149.60 451.48,142.48 449.00,140.00
             449.00,140.00 417.00,108.00 417.00,108.00
             417.00,108.00 378.00,69.00 378.00,69.00
             375.30,66.30 364.04,55.82 363.34,53.00
             362.32,48.95 373.09,39.91 376.00,37.00
             391.78,21.22 399.94,9.70 423.00,5.44 Z
           M 82.00,64.14
           C 82.00,64.14 141.00,64.14 141.00,64.14
             141.00,64.14 183.00,64.14 183.00,64.14
             194.64,64.00 203.14,62.77 212.96,70.68
             226.96,81.96 228.01,105.95 215.70,118.83
             209.00,125.84 201.37,127.99 192.00,128.00
             192.00,128.00 123.00,128.00 123.00,128.00
             113.46,128.00 94.37,127.26 86.00,130.47
             68.51,137.16 64.03,151.89 64.00,169.00
             64.00,169.00 64.00,323.00 64.00,323.00
             64.00,323.00 64.00,409.00 64.00,409.00
             64.19,425.03 69.65,439.63 86.00,445.45
             91.03,447.24 99.60,447.99 105.00,448.00
             105.00,448.00 259.00,448.00 259.00,448.00
             259.00,448.00 345.00,448.00 345.00,448.00
             361.03,447.81 375.63,442.35 381.45,426.00
             383.24,420.97 383.99,412.40 384.00,407.00
             384.00,407.00 384.00,320.00 384.00,320.00
             384.03,298.83 397.52,287.76 418.00,288.00
             436.56,288.23 447.97,302.08 448.00,320.00
             448.00,320.00 448.00,422.00 448.00,422.00
             447.94,457.61 422.32,491.58 390.00,504.99
             379.87,509.19 369.01,511.98 358.00,512.00
             358.00,512.00 90.00,512.00 90.00,512.00
             43.52,511.93 0.07,468.48 0.00,422.00
             0.00,422.00 0.00,154.00 0.00,154.00
             0.02,143.36 2.62,132.83 6.60,123.00
             19.85,90.30 47.69,70.05 82.00,64.14 Z
           M 339.00,75.34
           C 344.96,75.60 351.78,84.78 356.00,89.00
             356.00,89.00 398.00,131.00 398.00,131.00
             398.00,131.00 427.00,160.00 427.00,160.00
             429.33,162.33 436.80,168.84 436.80,172.00
             436.80,174.24 434.42,176.49 432.98,178.00
             432.98,178.00 422.00,189.00 422.00,189.00
             422.00,189.00 375.00,236.00 375.00,236.00
             375.00,236.00 333.01,278.00 333.01,278.00
             333.01,278.00 323.96,288.00 323.96,288.00
             323.96,288.00 302.00,310.00 302.00,310.00
             293.01,318.99 272.28,340.76 263.00,346.90
             252.10,354.10 219.09,363.82 205.00,368.51
             205.00,368.51 171.00,379.84 171.00,379.84
             162.38,382.63 153.13,385.85 144.00,383.21
             130.97,379.45 126.26,366.36 128.32,354.00
             128.32,354.00 134.67,334.00 134.67,334.00
             134.67,334.00 146.67,298.00 146.67,298.00
             150.66,286.01 158.43,259.44 164.55,250.00
             168.92,243.25 182.66,230.34 189.00,224.00
             189.00,224.00 234.00,179.00 234.00,179.00
             234.00,179.00 305.00,108.00 305.00,108.00
             305.00,108.00 326.00,87.00 326.00,87.00
             330.06,82.94 333.94,78.09 339.00,75.34 Z" />
</svg>
