<?xml version="1.0" encoding="UTF-8" standalone="no"?>
<!DOCTYPE svg PUBLIC "-//W3C//DTD SVG 20010904//EN"
              "http://www.w3.org/TR/2001/REC-SVG-20010904/DTD/svg10.dtd">

<svg xmlns="http://www.w3.org/2000/svg"
     width="4.97778in" height="5.68889in"
     viewBox="0 0 448 512">
  <path id="Selection"
        fill="black" stroke="black" stroke-width="1"
        d="M 192.00,224.00
           C 192.00,224.00 192.00,80.00 192.00,80.00
             192.03,58.83 205.52,47.76 226.00,48.00
             244.56,48.23 255.97,62.08 256.00,80.00
             256.00,80.00 256.00,224.00 256.00,224.00
             256.00,224.00 400.00,224.00 400.00,224.00
             421.17,224.03 432.24,237.52 432.00,258.00
             431.77,276.56 417.92,287.97 400.00,288.00
             400.00,288.00 256.00,288.00 256.00,288.00
             256.00,288.00 256.00,432.00 256.00,432.00
             255.99,438.24 255.59,442.30 252.60,448.00
             243.07,466.18 215.81,469.70 201.17,455.70
             194.16,449.00 192.01,441.37 192.00,432.00
             192.00,432.00 192.00,288.00 192.00,288.00
             192.00,288.00 48.00,288.00 48.00,288.00
             38.63,287.99 31.00,285.84 24.30,278.83
             10.30,264.19 13.82,236.93 32.00,227.40
             37.70,224.41 41.76,224.01 48.00,224.00
             48.00,224.00 192.00,224.00 192.00,224.00 Z" />
</svg>
