<?xml version="1.0" encoding="UTF-8" standalone="no"?>
<!DOCTYPE svg PUBLIC "-//W3C//DTD SVG 20010904//EN"
              "http://www.w3.org/TR/2001/REC-SVG-20010904/DTD/svg10.dtd">

<svg xmlns="http://www.w3.org/2000/svg"
     width="3.55556in" height="5.68889in"
     viewBox="0 0 320 512">
  <path id="Selection"
        fill="black" stroke="black" stroke-width="1"
        d="M 184.00,144.00
           C 180.76,136.49 178.31,132.35 173.08,126.00
             161.74,112.25 145.58,101.92 128.00,98.28
             115.18,95.63 97.28,96.00 84.00,96.00
             84.00,96.00 32.00,96.00 32.00,96.00
             22.63,95.99 15.00,93.84 8.30,86.83
             -5.70,72.19 -2.18,44.93 16.00,35.40
             21.70,32.41 25.76,32.01 32.00,32.00
             32.00,32.00 253.00,32.00 253.00,32.00
             253.00,32.00 278.00,32.00 278.00,32.00
             278.00,32.00 290.00,32.00 290.00,32.00
             303.45,32.17 314.45,40.15 318.64,53.00
             320.18,57.71 320.02,60.17 320.00,65.00
             319.92,84.09 306.72,95.97 288.00,96.00
             288.00,96.00 233.00,96.00 233.00,96.00
             238.52,105.20 244.25,115.93 247.95,126.00
             249.10,129.14 252.11,140.82 253.72,142.40
             255.70,144.35 259.41,143.99 262.00,144.00
             283.46,144.04 310.12,138.90 318.64,165.00
             320.22,169.85 320.06,173.01 320.00,178.00
             319.94,182.50 319.58,184.76 317.93,189.00
             308.61,212.91 282.45,207.96 262.00,208.00
             259.82,208.00 256.27,207.78 254.43,209.02
             251.72,210.85 249.51,221.44 248.19,225.00
             242.94,239.11 236.20,251.96 227.10,264.00
             210.90,285.44 188.13,302.09 163.00,311.58
             163.00,311.58 132.00,320.00 132.00,320.00
             137.95,322.52 147.34,329.97 153.00,334.00
             153.00,334.00 193.00,362.58 193.00,362.58
             193.00,362.58 250.00,403.29 250.00,403.29
             250.00,403.29 279.70,425.17 279.70,425.17
             286.87,432.68 288.12,440.11 288.00,450.00
             287.80,466.69 274.69,479.80 258.00,480.00
             241.06,480.20 236.25,474.35 223.00,464.86
             223.00,464.86 193.00,443.42 193.00,443.42
             193.00,443.42 51.00,342.00 51.00,342.00
             51.00,342.00 25.00,323.42 25.00,323.42
             8.79,311.83 -0.25,307.86 0.00,286.00
             0.22,267.34 13.99,256.03 32.00,256.00
             32.00,256.00 84.00,256.00 84.00,256.00
             119.83,256.00 149.23,256.19 173.79,225.00
             178.87,218.55 180.76,215.52 184.00,208.00
             184.00,208.00 32.00,208.00 32.00,208.00
             25.76,207.99 21.70,207.59 16.00,204.60
             -10.13,190.90 -4.63,144.17 31.00,144.00
             31.00,144.00 184.00,144.00 184.00,144.00 Z" />
</svg>
