<?xml version="1.0" encoding="UTF-8" standalone="no"?>
<!DOCTYPE svg PUBLIC "-//W3C//DTD SVG 20010904//EN"
              "http://www.w3.org/TR/2001/REC-SVG-20010904/DTD/svg10.dtd">

<svg xmlns="http://www.w3.org/2000/svg"
     width="5.68889in" height="5.68889in"
     viewBox="0 0 512 512">
  <path id="Selection"
        fill="black" stroke="black" stroke-width="1"
        d="M 188.00,0.21
           C 188.00,0.21 222.00,0.21 222.00,0.21
             236.88,0.18 259.78,5.26 274.00,10.00
             336.20,30.75 384.88,78.64 405.67,141.00
             410.29,154.86 415.83,178.55 416.00,193.00
             416.43,230.05 415.30,251.86 401.20,287.00
             396.94,297.63 391.63,308.28 385.58,318.00
             384.12,320.34 378.18,328.10 378.64,330.42
             379.08,332.64 385.19,338.19 387.00,340.00
             387.00,340.00 409.00,362.00 409.00,362.00
             409.00,362.00 484.00,437.00 484.00,437.00
             493.18,446.18 508.73,459.13 511.48,472.00
             512.13,475.03 512.03,478.87 512.00,482.00
             511.78,499.78 498.49,511.92 481.00,512.00
             481.00,512.00 477.00,512.00 477.00,512.00
             463.57,511.83 456.85,503.85 448.00,495.00
             448.00,495.00 433.00,480.00 433.00,480.00
             433.00,480.00 362.00,409.00 362.00,409.00
             362.00,409.00 341.00,388.00 341.00,388.00
             339.34,386.34 333.03,379.71 331.42,378.99
             329.09,377.94 326.88,379.80 325.00,381.01
             325.00,381.01 312.00,389.14 312.00,389.14
             293.52,399.52 276.64,406.22 256.00,411.12
             232.89,416.60 218.21,416.11 195.00,416.00
             165.54,415.86 129.52,403.38 104.00,389.14
             86.81,379.55 69.00,365.56 55.83,351.00
             39.14,332.54 24.91,312.17 15.45,289.00
             -13.96,216.95 -1.97,132.76 48.44,73.00
             73.57,43.21 107.78,20.59 145.00,9.02
             159.83,4.42 172.79,2.59 188.00,0.21 Z
           M 208.00,64.57
           C 208.00,64.57 193.00,65.17 193.00,65.17
             170.95,67.28 147.46,75.95 129.00,88.08
             113.27,98.42 101.11,110.77 90.15,126.00
             81.28,138.34 73.42,155.26 69.63,170.00
             50.74,243.38 88.35,318.52 161.00,343.66
             176.13,348.89 192.02,351.43 208.00,351.43
             226.42,351.43 244.94,348.01 262.00,340.99
             278.03,334.39 293.43,324.98 306.00,312.96
             331.31,288.77 350.94,251.67 351.00,216.00
             351.00,216.00 351.00,198.00 351.00,198.00
             350.73,175.46 339.82,146.50 327.25,128.00
             316.65,112.38 303.62,99.35 288.00,88.75
             269.65,76.28 245.13,67.28 223.00,65.17
             223.00,65.17 208.00,64.57 208.00,64.57 Z" />
</svg>
