<?xml version="1.0" encoding="UTF-8" standalone="no"?>
<!DOCTYPE svg PUBLIC "-//W3C//DTD SVG 20010904//EN"
              "http://www.w3.org/TR/2001/REC-SVG-20010904/DTD/svg10.dtd">

<svg xmlns="http://www.w3.org/2000/svg"
     width="4.97778in" height="5.68889in"
     viewBox="0 0 448 512">
  <path id="Selection"
        fill="black" stroke="black" stroke-width="1"
        d="M 156.00,0.16
           C 156.00,0.16 200.00,0.16 200.00,0.16
             200.00,0.16 284.00,0.16 284.00,0.16
             294.71,0.02 303.63,2.93 310.21,12.00
             313.14,16.04 318.45,29.10 321.39,30.98
             323.34,32.22 326.73,32.00 329.00,32.00
             329.00,32.00 416.00,32.00 416.00,32.00
             437.17,32.03 448.24,45.52 448.00,66.00
             447.77,84.56 433.92,95.97 416.00,96.00
             416.00,96.00 96.00,96.00 96.00,96.00
             96.00,96.00 32.00,96.00 32.00,96.00
             10.83,95.97 -0.24,82.48 0.00,62.00
             0.23,43.44 14.08,32.03 32.00,32.00
             32.00,32.00 119.00,32.00 119.00,32.00
             121.27,32.00 124.66,32.22 126.61,30.98
             129.53,29.12 134.54,16.84 137.10,13.00
             141.70,6.13 148.09,2.35 156.00,0.16 Z
           M 32.00,128.00
           C 32.00,128.00 416.00,128.00 416.00,128.00
             416.00,128.00 414.00,164.00 414.00,164.00
             414.00,164.00 414.00,173.00 414.00,173.00
             414.00,173.00 411.09,212.00 411.09,212.00
             411.09,212.00 409.91,237.00 409.91,237.00
             409.91,237.00 404.09,324.00 404.09,324.00
             404.09,324.00 402.91,349.00 402.91,349.00
             402.91,349.00 400.00,388.00 400.00,388.00
             400.00,388.00 400.00,397.00 400.00,397.00
             400.00,397.00 397.99,427.00 397.99,427.00
             397.99,427.00 396.09,452.00 396.09,452.00
             395.50,460.67 395.83,469.51 393.51,478.00
             389.52,492.63 378.07,504.33 364.00,509.56
             358.10,511.76 355.17,511.99 349.00,512.00
             349.00,512.00 99.00,512.00 99.00,512.00
             92.83,511.99 89.90,511.76 84.00,509.56
             69.93,504.33 58.48,492.63 54.49,478.00
             52.17,469.51 52.50,460.67 51.91,452.00
             51.91,452.00 50.01,427.00 50.01,427.00
             50.01,427.00 48.00,397.00 48.00,397.00
             48.00,397.00 48.00,388.00 48.00,388.00
             48.00,388.00 45.09,349.00 45.09,349.00
             45.09,349.00 43.91,324.00 43.91,324.00
             43.91,324.00 38.09,237.00 38.09,237.00
             38.09,237.00 36.91,212.00 36.91,212.00
             36.91,212.00 34.00,173.00 34.00,173.00
             34.00,173.00 34.00,164.00 34.00,164.00
             34.00,164.00 32.00,128.00 32.00,128.00 Z" />
</svg>
